<svg xmlns="http://www.w3.org/2000/svg" viewBox="0 0 1200 700"><defs><linearGradient id="g" x1="0" x2="1"><stop stop-color="#111"/><stop offset="1" stop-color="#500d12"/></linearGradient></defs><rect width="1200" height="700" fill="url(#g)"/><g opacity=".24" stroke="#fff"><path d="M0 100h1200M0 200h1200M0 300h1200M0 400h1200M0 500h1200M200 0v700M400 0v700M600 0v700M800 0v700M1000 0v700"/></g><g transform="translate(650 120)"><rect width="390" height="270" rx="22" fill="#151515" stroke="#ef4444" stroke-width="8"/><rect x="30" y="32" width="330" height="185" rx="10" fill="#080808"/><path d="M90 290h210" stroke="#ef4444" stroke-width="16" stroke-linecap="round"/><path d="M155 290l-35 70h120l-35-70" fill="#252525" stroke="#ef4444" stroke-width="7"/></g><g transform="translate(710 430)" fill="#dc2626"><path d="M0 45 45 0l32 32-45 45z"/><path d="M100 20 165 85l-25 25-65-65z"/></g><text x="85" y="310" fill="white" font-family="Arial,sans-serif" font-weight="700" font-size="50">TECHNICAL LAB</text><text x="87" y="360" fill="#d1d5db" font-family="Arial,sans-serif" font-size="25">Computer · Console · Projector service</text></svg>
