<svg xmlns="http://www.w3.org/2000/svg" viewBox="0 0 16 16" role="img">
  <path fill="#25D366" d="M13.601 2.326A7.854 7.854 0 0 0 7.994 0C3.627 0 .068 3.558.064 7.926c0 1.399.366 2.76 1.057 3.965L0 16l4.204-1.102a7.933 7.933 0 0 0 3.79.965h.004c4.368 0 7.926-3.558 7.93-7.93a7.898 7.898 0 0 0-2.327-5.607z"/>
  <path fill="#fff" d="M11.89 9.527c-.217-.108-1.284-.633-1.483-.706-.2-.072-.345-.108-.49.108-.144.217-.56.706-.687.85-.126.145-.253.163-.47.055-.217-.109-.916-.338-1.744-1.078-.645-.575-1.08-1.284-1.206-1.501-.127-.217-.014-.334.095-.442.098-.097.217-.253.326-.38.108-.126.144-.217.216-.361.072-.145.036-.271-.018-.38-.054-.108-.488-1.178-.67-1.612-.176-.423-.356-.366-.49-.373l-.416-.007a.797.797 0 0 0-.578.271c-.2.217-.76.742-.76 1.808s.778 2.097.886 2.242c.109.144 1.53 2.335 3.706 3.275.518.224.922.357 1.237.457.52.165.993.142 1.367.086.417-.062 1.284-.525 1.465-1.033.18-.507.18-.941.126-1.033-.054-.09-.199-.144-.416-.253z"/>
</svg>
